<svg width="1512" height="1045" viewBox="0 0 1512 1045" fill="none" xmlns="http://www.w3.org/2000/svg">
<g clip-path="url(#clip0_39_30)">
<rect width="1512" height="1045" fill="#F7F9FC"/>
<g opacity="0.5">
<g clip-path="url(#clip1_39_30)">
<path d="M-47 846.293L163.089 790L199.324 925.229L-10.7653 981.523L-47 846.293Z" fill="#C0D2E9"/>
<path d="M66.8269 849.957L199.551 925.112L-10.538 981.405L66.8269 849.957Z" fill="#E0E9F4"/>
<path d="M88.4197 904.751C85.6319 909.024 80.0745 910.513 75.5238 908.207L-46.7585 846.229L163.33 789.936L88.4197 904.751Z" fill="#6E8DB5"/>
</g>
</g>
<g opacity="0.5">
<g clip-path="url(#clip2_39_30)">
<path d="M1302.09 146.688L1572.35 258.711L1500.24 432.666L1229.99 320.644L1302.09 146.688Z" fill="#C0D2E9"/>
<path d="M1420.53 243.832L1500.58 432.728L1230.33 320.705L1420.53 243.832Z" fill="#E0E9F4"/>
<path d="M1398.69 319.978C1392.22 322.253 1385.07 319.29 1382.1 313.102L1302.4 146.817L1572.66 258.84L1398.69 319.978Z" fill="#6E8DB5"/>
</g>
</g>
<g opacity="0.5">
<g clip-path="url(#clip3_39_30)">
<path d="M1258.57 790L1511.92 936.275L1417.77 1099.35L1164.41 953.079L1258.57 790Z" fill="#C0D2E9"/>
<path d="M1363.34 901.746L1418.09 1099.46L1164.74 953.184L1363.34 901.746Z" fill="#E0E9F4"/>
<path d="M1331.76 974.397C1325.05 975.809 1318.35 971.94 1316.21 965.418L1258.86 790.168L1512.21 936.443L1331.76 974.397Z" fill="#6E8DB5"/>
</g>
</g>
<g opacity="0.5">
<g clip-path="url(#clip4_39_30)">
<path d="M38.4116 95.293L248.5 38.9998L284.735 174.229L74.6463 230.523L38.4116 95.293Z" fill="#C0D2E9"/>
<path d="M152.239 98.9574L284.963 174.112L74.8736 230.405L152.239 98.9574Z" fill="#E0E9F4"/>
<path d="M173.831 153.751C171.044 158.024 165.486 159.513 160.935 157.206L38.6531 95.2282L248.742 38.935L173.831 153.751Z" fill="#6E8DB5"/>
</g>
</g>
</g>
<defs>
<clipPath id="clip0_39_30">
<rect width="1512" height="1045" fill="white"/>
</clipPath>
<clipPath id="clip1_39_30">
<rect x="-47" y="846.293" width="217.5" height="140" rx="10" transform="rotate(-15 -47 846.293)" fill="white"/>
</clipPath>
<clipPath id="clip2_39_30">
<rect x="1302.09" y="146.688" width="292.55" height="188.308" rx="13.4506" transform="rotate(22.5145 1302.09 146.688)" fill="white"/>
</clipPath>
<clipPath id="clip3_39_30">
<rect x="1258.57" y="790" width="292.55" height="188.308" rx="13.4506" transform="rotate(30 1258.57 790)" fill="white"/>
</clipPath>
<clipPath id="clip4_39_30">
<rect x="38.4116" y="95.293" width="217.5" height="140" rx="10" transform="rotate(-15 38.4116 95.293)" fill="white"/>
</clipPath>
</defs>
</svg>
