<svg width="167" height="166" viewBox="0 0 167 166" fill="none" xmlns="http://www.w3.org/2000/svg">
<rect x="2.83337" y="2.5" width="146" height="145" stroke="#B32529" stroke-width="5"/>
<rect x="17.8334" y="18.5" width="146" height="145" fill="white" stroke="#B32529" stroke-width="5"/>
<path d="M39.3853 121.5C38.8853 116.834 41.7853 107.7 57.3853 108.5L62.3853 99.5004H75.3853L80.8853 108.5C86.2186 107.667 96.9853 109.1 97.3853 121.5M89.8853 60.0005H97.3853L102.885 66.0005V75.5005C104.719 77.6671 107.285 83.1004 102.885 87.5004L101.885 97.0005L97.3853 102.5L102.885 107.5H112.885C115.219 108.667 119.785 113.3 119.385 122.5M112.885 60H120.385L125.885 66V75.5C127.719 77.6666 130.285 83.0999 125.885 87.4999L124.885 97L120.385 102.5L125.885 107.5H135.885C138.219 108.667 142.785 113.3 142.385 122.5M51.8853 77.5004L45.8853 87.5004C52.552 96.5004 70.6853 109.1 89.8853 87.5004L84.3853 77.5004C79.2186 64.6671 65.4853 46.7004 51.8853 77.5004Z" stroke="#B33425" stroke-width="4" stroke-linecap="round"/>
</svg>
