<svg width="167" height="166" viewBox="0 0 167 166" fill="none" xmlns="http://www.w3.org/2000/svg">
<rect x="3.16663" y="2.5" width="146" height="145" stroke="#B32529" stroke-width="5"/>
<rect x="18.1666" y="18.5" width="146" height="145" fill="white" stroke="#B32529" stroke-width="5"/>
<path d="M120.667 72.6626L97.1666 59.6626L67.1666 112.163H73.1666L91.6666 124.663L120.667 72.6626Z" fill="#B32529"/>
<path d="M73.1666 116.163H64.6666V127.663H71.6666L78.6666 134.663L87.6666 129.663C86.8666 124.863 77.6666 118.663 73.1666 116.163Z" fill="#B32529"/>
<path d="M67.1666 139.163L65.6666 131.163C70.8666 129.563 74.1666 133.829 75.1666 136.163L67.1666 139.163Z" fill="#B32529"/>
<path d="M113.667 75.1626L89.6666 116.163" stroke="#C0D2E9" stroke-width="4" stroke-linecap="round"/>
<path d="M123.167 68.6626L100.667 55.6626L99.1666 54.6626L109.667 42.6626C112.467 41.4626 115.5 42.1626 116.667 42.6626L128.167 52.1626C130.167 53.3626 129.667 57.3292 129.167 59.1626L123.167 68.6626Z" fill="#B32529"/>
</svg>
